HIERARCHY
ROOT Hips
{
    OFFSET 0.000000 0.000000 0.000000
    CHANNELS 6 Xposition Yposition Zposition Zrotation Xrotation Yrotation
    JOINT Spine
    {
        OFFSET -0.000000 14.517291 0.000000
        CHANNELS 3 Zrotation Xrotation Yrotation
        JOINT Spine1
        {
            OFFSET -0.000000 37.558300 0.000000
            CHANNELS 3 Zrotation Xrotation Yrotation
            JOINT Neck
            {
                OFFSET -0.000000 37.404057 3.400369
                CHANNELS 3 Zrotation Xrotation Yrotation
                JOINT Head
                {
                    OFFSET -0.000000 24.785618 -3.540803
                    CHANNELS 3 Zrotation Xrotation Yrotation
                    End Site
                    {
                        OFFSET -0.000000 35.408028 0.000000
                    }
                }
            }
            JOINT LeftShoulder
            {
                OFFSET 6.992933 33.973492 -0.192664
                CHANNELS 3 Zrotation Xrotation Yrotation
                JOINT LeftArm
                {
                    OFFSET 21.527611 0.000000 0.000000
                    CHANNELS 3 Zrotation Xrotation Yrotation
                    JOINT LeftForeArm
                    {
                        OFFSET 56.353916 0.000000 0.000000
                        CHANNELS 3 Zrotation Xrotation Yrotation
                        JOINT LeftHand
                        {
                            OFFSET 47.774071 0.000000 0.000000
                            CHANNELS 3 Zrotation Xrotation Yrotation
                            End Site
                            {
                                OFFSET 26.556021 0.000000 0.000000
                            }
                        }
                    }
                }
            }
            JOINT RightShoulder
            {
                OFFSET -7.065357 33.973492 -0.192664
                CHANNELS 3 Zrotation Xrotation Yrotation
                JOINT RightArm
                {
                    OFFSET -21.527611 0.000000 0.000000
                    CHANNELS 3 Zrotation Xrotation Yrotation
                    JOINT RightForeArm
                    {
                        OFFSET -56.353916 0.000000 0.000000
                        CHANNELS 3 Zrotation Xrotation Yrotation
                        JOINT RightHand
                        {
                            OFFSET -47.774071 0.000000 0.000000
                            CHANNELS 3 Zrotation Xrotation Yrotation
                            End Site
                            {
                                OFFSET -26.556021 0.000000 0.000000
                            }
                        }
                    }
                }
            }
        }
    }
    JOINT LeftUpLeg
    {
        OFFSET 17.704014 0.000000 0.000000
        CHANNELS 3 Zrotation Xrotation Yrotation
        JOINT LeftLeg
        {
            OFFSET -0.000000 -81.181816 0.000000
            CHANNELS 3 Zrotation Xrotation Yrotation
            JOINT LeftFoot
            {
                OFFSET -0.000000 -62.821102 0.000000
                CHANNELS 3 Zrotation Xrotation Yrotation
                JOINT LeftToeBase
                {
                    OFFSET -0.000000 -11.507608 26.556021
                    CHANNELS 3 Zrotation Xrotation Yrotation
                    End Site
                    {
                        OFFSET -0.000000 0.000000 7.081605
                    }
                }
            }
        }
    }
    JOINT RightUpLeg
    {
        OFFSET -17.704014 0.000000 0.000000
        CHANNELS 3 Zrotation Xrotation Yrotation
        JOINT RightLeg
        {
            OFFSET -0.000000 -81.181816 0.000000
            CHANNELS 3 Zrotation Xrotation Yrotation
            JOINT RightFoot
            {
                OFFSET -0.000000 -62.821102 0.000000
                CHANNELS 3 Zrotation Xrotation Yrotation
                JOINT RightToeBase
                {
                    OFFSET -0.000000 -11.507608 26.556021
                    CHANNELS 3 Zrotation Xrotation Yrotation
                    End Site
                    {
                        OFFSET -0.000000 0.000000 7.081605
                    }
                }
            }
        }
    }
}
MOTION
Frames:    11
Frame Time:    0.008333
-0.021574    157.068802    -78.299622    -0.900680    -2.814916    36.295677    -1.995777    -0.132837    -1.132562    -1.154580    -0.317737    -0.382050    1.606089    6.052370    -16.793718    12.154575    -5.581457    -15.372452    1.328422    9.323804    -13.315898    -35.250851    23.255058    -40.718979    -6.015936    -28.228586    -121.622635    -14.114434    -35.965508    -13.413667    1.390777    11.958177    -6.541981    33.198799    19.864614    42.583897    -6.992589    7.997843    43.083599    -18.920748    5.073296    33.260735    17.933367    7.837573    -3.334708    -8.156609    14.823036    -19.459118    -1.626623    -22.465656    42.028881    0.000000    0.000000    0.000000    -15.512573    -11.287032    -11.048476    4.450999    6.535616    -14.257923    7.843804    11.881638    -14.045660    0.000000    0.000000    0.000000    
-0.004575    157.049744    -78.310051    -0.911071    -2.803797    36.265087    -1.974263    -0.112365    -1.117875    -1.159782    -0.305515    -0.377121    1.631585    6.079710    -16.787676    12.163450    -5.678986    -15.356309    1.330958    9.319792    -13.316931    -35.246693    23.235603    -40.729233    -6.021830    -28.238787    -121.618660    -14.091467    -35.985207    -13.413055    1.394256    11.958353    -6.505667    33.221344    19.817627    42.574718    -6.983221    8.043610    43.054874    -18.969385    5.091989    33.297401    17.917835    7.636113    -3.429265    -8.204050    15.246237    -19.442043    -1.541946    -22.630108    42.166454    0.000000    0.000000    0.000000    -15.557525    -11.381301    -11.047620    4.515975    6.689908    -14.208205    7.835429    11.816726    -14.090567    0.000000    0.000000    0.000000    
0.010265    157.030548    -78.322792    -0.925375    -2.795207    36.237339    -1.955318    -0.088645    -1.107226    -1.147207    -0.291356    -0.373469    1.637488    6.098791    -16.785091    12.178346    -5.766397    -15.341969    1.323349    9.307311    -13.305880    -35.245525    23.220428    -40.745422    -6.030797    -28.243914    -121.604210    -14.124536    -35.994774    -13.435834    1.389247    11.962415    -6.473750    33.219528    19.801680    42.583832    -7.006196    8.052227    43.026543    -18.998951    5.097922    33.301506    17.914547    7.387764    -3.512500    -8.268126    15.771881    -19.471029    -1.432461    -22.820946    42.343754    0.000000    0.000000    0.000000    -15.598159    -11.479560    -11.070055    4.575896    6.857726    -14.147100    7.835181    11.747937    -14.130490    0.000000    0.000000    0.000000    
0.024924    157.010956    -78.337402    -0.936998    -2.792356    36.212742    -1.932359    -0.057446    -1.097060    -1.141660    -0.270681    -0.369956    1.656366    6.111036    -16.783876    12.186382    -5.846020    -15.332481    1.329340    9.292865    -13.297629    -35.252300    23.203548    -40.767971    -6.032242    -28.246681    -121.581680    -14.114348    -35.993389    -13.465135    1.395922    11.970224    -6.448161    33.203072    19.784241    42.602245    -7.026711    8.045258    43.003429    -19.023340    5.100297    33.244602    17.900682    7.148098    -3.575242    -8.325212    16.392191    -19.452868    -1.312024    -23.097309    42.465771    0.000000    0.000000    0.000000    -15.646310    -11.579131    -11.082922    4.649789    7.041749    -14.160295    7.812321    11.690470    -14.096175    0.000000    0.000000    0.000000    
0.033806    156.986099    -78.354141    -0.958390    -2.783909    36.189213    -1.908478    -0.028135    -1.087660    -1.123774    -0.256714    -0.366859    1.683155    6.120189    -16.788704    12.157943    -5.930456    -15.336495    1.321758    9.278881    -13.284105    -35.249519    23.186600    -40.792801    -6.045450    -28.232466    -121.570618    -14.059713    -36.004887    -13.445246    1.394069    11.987653    -6.437801    33.177197    19.777281    42.643238    -7.073367    8.031777    42.974339    -19.007147    5.105286    33.259537    17.896826    6.863560    -3.598366    -8.366286    16.981766    -19.452765    -1.250020    -23.303303    42.551807    0.000000    0.000000    0.000000    -15.688663    -11.698709    -11.128040    4.710965    7.242548    -14.186516    7.801548    11.631432    -14.026368    0.000000    0.000000    0.000000    
0.041311    156.962280    -78.374359    -0.980433    -2.779997    36.161716    -1.884107    0.006127    -1.079433    -1.095202    -0.240373    -0.364039    1.693627    6.131956    -16.788748    12.143469    -6.020217    -15.330765    1.310681    9.265609    -13.284771    -35.254349    23.165520    -40.801781    -6.041416    -28.232273    -121.561127    -13.987097    -36.007317    -13.415561    1.371970    11.994262    -6.414595    33.173786    19.763958    42.672512    -7.098302    8.021881    42.941479    -18.986111    5.103061    33.293514    17.904303    6.590271    -3.615156    -8.430932    17.548389    -19.395100    -1.190845    -23.485424    42.587917    0.000000    0.000000    0.000000    -15.727488    -11.819715    -11.199943    4.762353    7.452710    -14.149681    7.809255    11.574615    -13.981578    0.000000    0.000000    0.000000    
0.040912    156.935745    -78.399979    -1.012697    -2.764929    36.138565    -1.857664    0.032485    -1.071613    -1.073004    -0.230464    -0.361449    1.687105    6.124249    -16.791248    12.155955    -6.070196    -15.325313    1.301818    9.266232    -13.294381    -35.243389    23.156313    -40.818027    -6.036530    -28.263199    -121.553322    -13.981073    -36.027428    -13.416711    1.373184    11.995073    -6.401206    33.139332    19.784691    42.708706    -7.136217    7.970106    42.899380    -18.961426    5.067199    33.311203    17.902689    6.283137    -3.550493    -8.452386    18.158543    -19.437107    -1.141291    -23.689995    42.654198    0.000000    0.000000    0.000000    -15.736807    -11.974443    -11.321189    4.743225    7.686270    -14.157845    7.814696    11.536367    -13.849406    0.000000    0.000000    0.000000    
0.041883    156.906204    -78.424416    -1.045309    -2.761401    36.113430    -1.824059    0.066721    -1.060412    -1.048468    -0.213990    -0.357664    1.681901    6.112347    -16.787523    12.159925    -6.134075    -15.313691    1.300143    9.265568    -13.312898    -35.241070    23.138548    -40.832985    -6.019189    -28.288435    -121.540428    -13.970020    -36.024021    -13.417572    1.362561    12.001980    -6.398402    33.106819    19.801805    42.757465    -7.159022    7.898108    42.869766    -18.945789    4.999681    33.348732    17.910213    6.008575    -3.524359    -8.419366    18.713636    -19.616652    -1.111494    -23.889263    42.774254    0.000000    0.000000    0.000000    -15.767356    -12.109462    -11.385878    4.799171    7.907160    -14.127725    7.815796    11.472133    -13.822205    0.000000    0.000000    0.000000    
0.034723    156.874893    -78.454742    -1.092141    -2.748918    36.092072    -1.780920    0.086465    -1.051269    -1.039840    -0.189680    -0.354301    1.719380    6.104976    -16.778011    12.133314    -6.212479    -15.304312    1.315842    9.248178    -13.316774    -35.224766    23.167500    -40.871243    -5.997787    -28.353441    -121.534485    -13.948702    -36.057632    -13.376910    1.378761    11.987107    -6.395375    33.058147    19.840887    42.792717    -7.239021    7.807764    42.844490    -19.035532    4.901261    33.400604    17.943535    5.697651    -3.469148    -8.497172    19.304165    -19.643715    -1.020766    -24.067724    42.852665    0.000000    0.000000    0.000000    -15.845942    -12.258754    -11.322598    4.989866    8.140344    -14.052085    7.781441    11.370612    -13.979753    0.000000    0.000000    0.000000    
0.026524    156.839828    -78.484680    -1.143850    -2.742322    36.072929    -1.730211    0.120698    -1.046405    -1.029185    -0.186861    -0.352744    1.741567    6.106379    -16.770332    12.121370    -6.279249    -15.293698    1.329491    9.240023    -13.321890    -35.226826    23.178572    -40.896976    -5.979738    -28.392292    -121.523438    -13.969744    -36.063721    -13.368341    1.392904    11.984547    -6.382887    33.012779    19.877148    42.826294    -7.340136    7.777022    42.789581    -19.089735    4.872749    33.490932    17.975922    5.372350    -3.336695    -8.532694    19.935806    -19.680023    -0.953071    -24.247520    42.866566    0.000000    0.000000    0.000000    -15.886593    -12.433176    -11.444270    5.076975    8.428302    -13.923649    7.772814    11.285435    -14.002517    0.000000    0.000000    0.000000    
0.014865    156.802292    -78.514694    -1.201131    -2.736395    36.048573    -1.684751    0.146735    -1.031637    -1.008116    -0.172261    -0.347824    1.778175    6.115024    -16.765377    12.101195    -6.361411    -15.287186    1.342775    9.228257    -13.327045    -35.214924    23.204302    -40.939083    -5.946591    -28.452562    -121.505455    -13.997207    -36.065605    -13.359926    1.406673    11.972632    -6.377167    32.979378    19.889297    42.847511    -7.397766    7.723955    42.766094    -19.078520    4.853434    33.437893    18.029646    5.066343    -3.273084    -8.620647    20.512064    -19.662207    -0.873598    -24.415211    42.900406    0.000000    0.000000    0.000000    -15.921695    -12.625937    -11.570905    5.161036    8.745619    -13.844085    7.756639    11.194080    -13.976405    0.000000    0.000000    0.000000    
